<?xml version="1.0" encoding="UTF-8"?>
<!DOCTYPE svg PUBLIC "-//W3C//DTD SVG 1.1//EN" "http://www.w3.org/Graphics/SVG/1.1/DTD/svg11.dtd">
<!-- Creator: CorelDRAW -->
<svg xmlns="http://www.w3.org/2000/svg" xml:space="preserve" width="793.75mm" height="793.75mm" version="1.1" style="shape-rendering:geometricPrecision; text-rendering:geometricPrecision; image-rendering:optimizeQuality; fill-rule:evenodd; clip-rule:evenodd"
viewBox="0 0 79374.98 79374.98"
 xmlns:xlink="http://www.w3.org/1999/xlink"
 xmlns:xodm="http://www.corel.com/coreldraw/odm/2003">
 <defs>
  <style type="text/css">
   <![CDATA[
    .fil1 {fill:#1A1A1A}
    .fil0 {fill:white}
   ]]>
  </style>
 </defs>
 <g id="Layer_x0020_1">
  <metadata id="CorelCorpID_0Corel-Layer"/>
  <rect class="fil0" x="39059.85" y="36736.82" width="846.67" height="846.67" rx="257.54" ry="257.54"/>
  <path class="fil1" d="M39337.22 36978.75l224.95 0c37.16,0 64.29,0.59 80.91,-0.21 13.09,-0.63 19.25,-4.7 24.48,-12.99 5.69,-9.03 4.99,-17.91 5.31,-31.58 0.48,-20.83 -0.18,-47.98 -0.12,-66.01l-110.58 0 -114.11 0 -110.84 110.79zm0.61 332.36l-2.07 -330.9 -105.11 105.06c-0.1,75.28 -0.19,150.56 -0.29,225.84 -0.13,171.94 11.01,97.63 107.48,1.3l-0.01 -1.3zm113.28 -111.81l-111.97 111.81 223.03 0 0 108.74c24.54,0 46.15,-0.78 61.26,-0.93 62.8,-0.59 51.56,-2.38 51.25,-108.65 -3.19,-131.04 20.28,-108.19 -112.51,-111.48l-111.06 0.51z"/>
 </g>
</svg>
