<?xml version="1.0" encoding="UTF-8"?>
<!DOCTYPE svg PUBLIC "-//W3C//DTD SVG 1.1//EN" "http://www.w3.org/Graphics/SVG/1.1/DTD/svg11.dtd">
<!-- Creator: CorelDRAW -->
<svg xmlns="http://www.w3.org/2000/svg" xml:space="preserve" width="264.583mm" height="264.583mm" version="1.1" style="shape-rendering:geometricPrecision; text-rendering:geometricPrecision; image-rendering:optimizeQuality; fill-rule:evenodd; clip-rule:evenodd"
viewBox="0 0 26458.32 26458.32"
 xmlns:xlink="http://www.w3.org/1999/xlink"
 xmlns:xodm="http://www.corel.com/coreldraw/odm/2003">
 <defs>
  <style type="text/css">
   <![CDATA[
    .fil0 {fill:black}
   ]]>
  </style>
 </defs>
 <g id="Layer_x0020_1">
  <metadata id="CorelCorpID_0Corel-Layer"/>
  <path class="fil0" d="M8239.09 7658.07l6843.59 0c1130.33,0 1955.76,14.51 2461.48,-5.16 398.04,-15.47 585.71,-115.22 744.64,-318.78 173.06,-221.61 151.74,-439.74 161.47,-775.25 14.86,-511.12 -5.34,-1177.54 -3.37,-1620.22l-3364.22 0 -3471.49 0 -3372.1 2719.41zm18.45 8158.16l-62.88 -8122.31 -3197.8 2578.83c-2.87,1847.83 -5.74,3695.64 -8.61,5543.48 -4.14,4220.41 334.86,2396.31 3269.55,31.97l-0.26 -31.97zm3446.32 -2744.38l-3406.36 2744.38 6785.18 0 0 2669.1c746.57,-0.02 1404.06,-19.22 1863.67,-22.71 1910.47,-14.51 1568.44,-58.42 1558.96,-2666.97 -97.03,-3216.45 617.24,-2655.71 -3422.63,-2736.46l-3378.82 12.66z"/>
 </g>
</svg>
