<?xml version="1.0" encoding="UTF-8"?>
<!DOCTYPE svg PUBLIC "-//W3C//DTD SVG 1.1//EN" "http://www.w3.org/Graphics/SVG/1.1/DTD/svg11.dtd">
<!-- Creator: CorelDRAW -->
<svg xmlns="http://www.w3.org/2000/svg" xml:space="preserve" width="264.583mm" height="264.583mm" version="1.1" style="shape-rendering:geometricPrecision; text-rendering:geometricPrecision; image-rendering:optimizeQuality; fill-rule:evenodd; clip-rule:evenodd"
viewBox="0 0 26458.32 26458.32"
 xmlns:xlink="http://www.w3.org/1999/xlink"
 xmlns:xodm="http://www.corel.com/coreldraw/odm/2003">
 <defs>
  <style type="text/css">
   <![CDATA[
    .fil0 {fill:black}
   ]]>
  </style>
 </defs>
 <g id="Layer_x0020_1">
  <metadata id="CorelCorpID_0Corel-Layer"/>
  <path class="fil0" d="M11541.38 11458.63l427.72 0c70.65,0 122.24,0.91 153.85,-0.32 24.87,-0.97 36.6,-7.21 46.54,-19.93 10.81,-13.85 9.48,-27.48 10.09,-48.45 0.93,-31.95 -0.33,-73.6 -0.21,-101.27l-210.27 0 -216.97 0 -210.75 169.97zm1.15 509.89l-3.93 -507.65 -199.86 161.18c-0.18,115.49 -0.36,230.97 -0.54,346.47 -0.26,263.77 20.93,149.77 204.35,1.99l-0.02 -1.99zm215.4 -171.53l-212.9 171.53 424.07 0 0 166.81c46.66,0 87.76,-1.2 116.48,-1.41 119.41,-0.91 98.03,-3.66 97.44,-166.69 -6.07,-201.03 38.58,-165.98 -213.92,-171.03l-211.17 0.79z"/>
 </g>
</svg>
