<?xml version="1.0" encoding="UTF-8"?>
<!DOCTYPE svg PUBLIC "-//W3C//DTD SVG 1.1//EN" "http://www.w3.org/Graphics/SVG/1.1/DTD/svg11.dtd">
<!-- Creator: CorelDRAW -->
<svg xmlns="http://www.w3.org/2000/svg" xml:space="preserve" width="264.583mm" height="264.583mm" version="1.1" style="shape-rendering:geometricPrecision; text-rendering:geometricPrecision; image-rendering:optimizeQuality; fill-rule:evenodd; clip-rule:evenodd"
viewBox="0 0 26458.32 26458.32"
 xmlns:xlink="http://www.w3.org/1999/xlink"
 xmlns:xodm="http://www.corel.com/coreldraw/odm/2003">
 <defs>
  <style type="text/css">
   <![CDATA[
    .fil0 {fill:black}
   ]]>
  </style>
 </defs>
 <g id="Layer_x0020_1">
  <metadata id="CorelCorpID_0Corel-Layer"/>
  <path class="fil0" d="M11651.46 11585.32l213.85 0c35.33,0 61.12,0.45 76.92,-0.17 12.44,-0.48 18.31,-3.6 23.27,-9.96 5.41,-6.92 4.75,-13.74 5.05,-24.22 0.46,-15.98 -0.17,-36.8 -0.11,-50.64l-105.13 0 -108.48 0 -105.37 84.99zm0.57 254.94l-1.96 -253.82 -99.93 80.58c-0.09,57.75 -0.18,115.49 -0.27,173.24 -0.13,131.88 10.46,74.88 102.17,1l-0.01 -1zm107.7 -85.77l-106.45 85.77 212.03 0 0 83.4c23.33,0 43.88,-0.6 58.24,-0.7 59.7,-0.46 49.02,-1.83 48.72,-83.35 -3.03,-100.51 19.29,-82.99 -106.96,-85.51l-105.58 0.39z"/>
 </g>
</svg>
